<svg width="23" height="30" viewBox="0 0 23 30" fill="none" xmlns="http://www.w3.org/2000/svg">
<path d="M0 8.66266V11.1377V12.3752V16.0878V17.3253V23.5129V24.7504C0 26.1117 1.10808 27.2255 2.47504 27.2255H19.8003C21.1678 27.2255 22.2754 26.1117 22.2754 24.7504V23.5129V17.3253V12.3752V8.66266H0Z" fill="#16A085"/>
<path d="M0 7.42511V9.90015V11.1377V14.8502V16.0878V22.2754V23.5129C0 24.8742 1.10808 25.9879 2.47504 25.9879H19.8003C21.1678 25.9879 22.2754 24.8742 22.2754 23.5129V22.2754V16.0878V11.1377V7.42511H0Z" fill="#ECF0F1"/>
<path d="M0 6.18759V8.66263V9.90015V13.6127V14.8502V21.0378V22.2754C0 23.6366 1.10808 24.7504 2.47504 24.7504H19.8003C21.1678 24.7504 22.2754 23.6366 22.2754 22.2754V21.0378V14.8502V9.90015V6.18759H0Z" fill="#BDC3C7"/>
<path d="M0 4.95007V7.42512V8.66264V12.3752V13.6127V19.8003V21.0378C0 22.3991 1.10808 23.5129 2.47504 23.5129H19.8003C21.1678 23.5129 22.2754 22.3991 22.2754 21.0378V19.8003V13.6127V8.66264V4.95007H0Z" fill="#ECF0F1"/>
<path d="M2.47504 0C1.10808 0 0 1.11377 0 2.47504V3.71256V8.66265V11.1377V12.3752V16.0878V17.3253V23.5129V24.7504C0 26.1117 1.10808 27.2255 2.47504 27.2255H4.95008V25.9879H3.0938C2.06864 25.9879 1.23752 25.1217 1.23752 24.1317C1.23752 23.0179 2.06864 22.2754 3.0938 22.2754H18.5628H19.8003C21.1678 22.2754 22.2754 21.1616 22.2754 19.8003V18.5628V12.3752V7.42513V3.71256V2.47504C22.2754 1.11377 21.1678 0 19.8003 0H14.8503H2.47504Z" fill="#16A085"/>
<path d="M6.18759 0V22.2754H7.42511H18.5628H19.8003C21.1678 22.2754 22.2754 21.1616 22.2754 19.8003V18.5628V12.3752V7.42513V3.71256V2.47504C22.2754 1.11377 21.1678 0 19.8003 0H14.8502H7.42511H6.18759Z" fill="#1ABC9C"/>
<path d="M4.95007 24.7504V27.2255V29.7005L8.04388 27.2255L11.1377 29.7005V27.2255V24.7504H4.95007Z" fill="#E74C3C"/>
<path d="M4.95007 23.5129H11.1377V24.7504H4.95007V23.5129Z" fill="#C0392B"/>
</svg>
