<svg width="23" height="21" viewBox="0 0 23 21" fill="none" xmlns="http://www.w3.org/2000/svg">
<path d="M7.20828 0H15.0717C15.0717 0 14.4165 1.96587 11.14 1.96587C7.86357 1.96587 7.20828 0 7.20828 0Z" fill="#553788"/>
<path d="M19.3698 9.05805L22.28 5.24231C19.6588 3.93173 15.0718 0 15.0718 0C15.0718 0 13.7612 2.62115 11.1401 2.62115C8.5189 2.62115 7.20832 0 7.20832 0C7.20832 0 2.62131 3.93173 0.000152588 5.24231L2.90898 9.05871L5.89775 7.86346C5.89775 7.86346 6.06157 18.3481 3.93188 20.3139C3.93188 20.3139 7.20832 20.9692 11.1401 20.9692C15.0718 20.9692 18.3482 20.3139 18.3482 20.3139C16.2185 18.3481 16.3824 7.86346 16.3824 7.86346L19.3698 9.05805Z" fill="#AA8DD8"/>
<path d="M3.27654 9.17404C3.08454 9.17404 2.89385 9.09016 2.76476 8.9283L0.143606 5.65186C-0.0824681 5.36943 -0.0365979 4.9566 0.245831 4.73118C0.527605 4.50511 0.941092 4.55098 1.16651 4.83341L3.78767 8.10985C4.01374 8.39228 3.96787 8.80511 3.68544 9.03053C3.56487 9.12686 3.4207 9.17404 3.27654 9.17404ZM19.0028 9.17404C18.8593 9.17404 18.7151 9.12686 18.5939 9.03053C18.3115 8.80445 18.2656 8.39228 18.4917 8.10985L21.1128 4.83341C21.3402 4.55098 21.7511 4.50511 22.0342 4.73118C22.3166 4.95726 22.3625 5.36943 22.1364 5.65186L19.5152 8.9283C19.3855 9.09016 19.1955 9.17404 19.0028 9.17404ZM15.0717 0C15.0717 0 13.1059 1.96587 11.14 1.96587C9.17414 1.96587 7.20827 0 7.20827 0L8.51885 4.58702L10.4847 3.11262V20.3139C10.4847 20.6763 10.7783 20.9692 11.14 20.9692C11.5017 20.9692 11.7953 20.6763 11.7953 20.3139V3.11262L13.7612 4.58702L15.0717 0Z" fill="#9266CC"/>
</svg>
