<svg width="24" height="24" viewBox="0 0 24 24" fill="none" xmlns="http://www.w3.org/2000/svg">
<path d="M8.82785 21.1922C9.65079 21.1922 10.3179 20.5251 10.3179 19.7021C10.3179 18.8792 9.65079 18.2121 8.82785 18.2121C8.0049 18.2121 7.33777 18.8792 7.33777 19.7021C7.33777 20.5251 8.0049 21.1922 8.82785 21.1922Z" fill="#242424"/>
<path d="M17.8809 21.1922C18.7039 21.1922 19.371 20.5251 19.371 19.7021C19.371 18.8792 18.7039 18.2121 17.8809 18.2121C17.058 18.2121 16.3909 18.8792 16.3909 19.7021C16.3909 20.5251 17.058 21.1922 17.8809 21.1922Z" fill="#242424"/>
<path d="M14.9471 4.63579C14.917 4.41632 14.9015 4.19507 14.9008 3.97354C14.9015 3.752 14.917 3.53075 14.9471 3.31128H7.60931L8.03978 4.63579H14.9471Z" fill="#242424"/>
<path d="M19.8677 8.94047H19.5895L18.7617 12.5829H8.82784L5.80133 3.00003C5.76859 2.89835 5.71174 2.80609 5.63563 2.73113C5.55952 2.65618 5.46641 2.60074 5.36424 2.56956L2.64899 1.73512C2.5655 1.70946 2.47777 1.7005 2.39082 1.70875C2.30387 1.717 2.21939 1.74229 2.14221 1.78319C1.98634 1.86578 1.86967 2.00691 1.81785 2.17552C1.76604 2.34414 1.78333 2.52643 1.86592 2.6823C1.94851 2.83816 2.08964 2.95484 2.25826 3.00665L4.63576 3.73514L7.67552 13.3379L6.58941 14.2253L6.50332 14.3114C6.23467 14.621 6.08239 15.0146 6.07272 15.4244C6.06305 15.8342 6.19659 16.2345 6.45034 16.5564C6.63084 16.7759 6.86022 16.9502 7.12011 17.0652C7.38 17.1802 7.66319 17.2327 7.94704 17.2187H19.0001C19.1757 17.2187 19.3442 17.1489 19.4684 17.0247C19.5926 16.9005 19.6624 16.7321 19.6624 16.5564C19.6624 16.3808 19.5926 16.2123 19.4684 16.0881C19.3442 15.9639 19.1757 15.8942 19.0001 15.8942H7.84108C7.76482 15.8916 7.69052 15.8693 7.62536 15.8296C7.56019 15.7899 7.50637 15.7341 7.46909 15.6675C7.4318 15.6009 7.41232 15.5259 7.41252 15.4496C7.41272 15.3733 7.43259 15.2983 7.47022 15.2319L9.06625 13.9074H19.2915C19.4446 13.9111 19.5942 13.8617 19.715 13.7675C19.8357 13.6734 19.9201 13.5402 19.9538 13.3908L20.9935 8.81465C20.6242 8.89933 20.2465 8.94155 19.8677 8.94047Z" fill="#242424"/>
<path d="M19.8677 7.28483C21.6965 7.28483 23.179 5.80232 23.179 3.97355C23.179 2.14477 21.6965 0.662262 19.8677 0.662262C18.0389 0.662262 16.5564 2.14477 16.5564 3.97355C16.5564 5.80232 18.0389 7.28483 19.8677 7.28483Z" fill="#FF6242"/>
</svg>
