<svg width="30" height="33" viewBox="0 0 30 33" fill="none" xmlns="http://www.w3.org/2000/svg">
<path d="M16.7175 0.683381C15.7538 -0.227794 14.2462 -0.227794 13.2825 0.683381L1.1737 12.1317C0.4245 12.8401 0 13.8256 0 14.8567V28.7798C0 30.8508 1.67893 32.5298 3.75 32.5298H7.5C9.57107 32.5298 11.25 30.8508 11.25 28.7798V22.5298C11.25 21.8395 11.8097 21.2798 12.5 21.2798H17.5C18.1903 21.2798 18.75 21.8395 18.75 22.5298V28.7798C18.75 30.8508 20.429 32.5298 22.5 32.5298H26.25C28.321 32.5298 30 30.8508 30 28.7798V14.8567C30 13.8256 29.5755 12.8401 28.8263 12.1317L16.7175 0.683381Z" fill="#242424"/>
</svg>
