<svg width="36" height="19" viewBox="0 0 36 19" fill="none" xmlns="http://www.w3.org/2000/svg">
<path d="M0.639437 16.7806C-1.01109 15.0376 0.75453 10.3743 3.41684 7.52249C6.65424 4.05527 11.1173 1.13872 19.7441 2.13052C26.8677 2.94986 31.2904 6.54253 32.7948 8.39327C35.1869 11.3346 36.9152 15.4846 35.4745 17.201C33.0568 20.082 23.0677 15.1801 17.6495 15.0801C12.2313 14.9802 4.325 20.6664 0.639437 16.7806Z" fill="#E1ECFF"/>
<path d="M26.2382 13.9958H7.43477L3.4798 1.06655C3.44196 0.943068 3.43365 0.812422 3.45553 0.685136C3.47741 0.55785 3.52888 0.43748 3.60578 0.333719C3.68268 0.229957 3.78287 0.145703 3.89829 0.0877397C4.01371 0.0297765 4.14112 -0.000276051 4.27027 1.91075e-06H21.3462C21.523 -3.32663e-05 21.6951 0.0566912 21.8372 0.161822C21.9793 0.266953 22.0839 0.414934 22.1356 0.583978L26.2382 13.9958Z" fill="#FF97C9"/>
<path d="M23.1588 12.4567H9.66891C9.49054 12.4567 9.31688 12.3994 9.17345 12.2934C9.03003 12.1873 8.92442 12.0381 8.87214 11.8675L5.87714 2.07613C5.85808 2.014 5.85388 1.94827 5.86486 1.88421C5.87584 1.82016 5.9017 1.75958 5.94036 1.70735C5.97903 1.65511 6.02941 1.61268 6.08746 1.58347C6.14551 1.55426 6.20961 1.53908 6.2746 1.53915H19.7645C19.9429 1.53916 20.1166 1.5964 20.26 1.70245C20.4034 1.8085 20.509 1.95777 20.5613 2.12831L23.5563 11.9197C23.5753 11.9818 23.5796 12.0476 23.5686 12.1116C23.5576 12.1757 23.5317 12.2363 23.4931 12.2885C23.4544 12.3407 23.404 12.3832 23.346 12.4124C23.2879 12.4416 23.2238 12.4568 23.1588 12.4567Z" fill="#1C3177"/>
<path d="M7.43475 13.9958H32.6919C32.8623 13.9958 33.0257 14.0635 33.1462 14.184C33.2667 14.3045 33.3343 14.4679 33.3343 14.6383V15.4965C33.3343 15.6669 33.2667 15.8303 33.1462 15.9507C33.0257 16.0712 32.8623 16.1389 32.6919 16.1389H8.0772C7.99283 16.1389 7.90929 16.1223 7.83135 16.09C7.7534 16.0577 7.68258 16.0104 7.62292 15.9507C7.56327 15.8911 7.51594 15.8203 7.48366 15.7423C7.45137 15.6644 7.43475 15.5808 7.43475 15.4965V13.9958Z" fill="#F774B9"/>
<path d="M10.5131 7.46959L12.0492 5.75504" stroke="#99ADF9" stroke-width="1.31956" stroke-miterlimit="10" stroke-linecap="round"/>
<path d="M12.4118 7.46959L10.0985 5.75504" stroke="#99ADF9" stroke-width="1.31956" stroke-miterlimit="10" stroke-linecap="round"/>
<path d="M18.0988 7.46959L19.635 5.75504" stroke="#99ADF9" stroke-width="1.31956" stroke-miterlimit="10" stroke-linecap="round"/>
<path d="M19.9977 7.46959L17.684 5.75504" stroke="#99ADF9" stroke-width="1.31956" stroke-miterlimit="10" stroke-linecap="round"/>
<path d="M14.3019 8.55313C14.3019 8.55313 15.5061 7.88922 16.7292 8.55313" stroke="#99ADF9" stroke-width="1.31956" stroke-miterlimit="10" stroke-linecap="round"/>
<path d="M27.4531 6.52958C27.3139 6.52922 27.179 6.48133 27.0707 6.39384C26.9624 6.30635 26.8873 6.18451 26.8577 6.04848C26.7444 5.53815 26.6726 5.14846 26.7726 4.78394C26.8925 4.35169 27.2089 4.09856 27.5497 3.85654C27.7795 3.6937 27.939 3.44649 27.9568 3.22741C27.9679 3.08197 27.9168 2.95948 27.7958 2.84253C27.4383 2.49577 26.8595 3.03534 26.8336 3.05866C26.8336 3.05866 26.3473 3.47018 25.9862 3.03867C25.625 2.60717 25.9862 2.17936 25.9862 2.17936C26.2192 1.96304 26.4872 1.78785 26.7788 1.66126C27.4742 1.3652 28.1367 1.47622 28.6444 1.96657C29.0241 2.33442 29.2117 2.81589 29.1729 3.32215C29.1281 3.90612 28.785 4.47937 28.2547 4.85462C28.0056 5.03115 27.9586 5.09369 27.9472 5.11368C27.9187 5.20397 28.0127 5.62697 28.0482 5.78647C28.0678 5.87563 28.0672 5.96805 28.0465 6.05694C28.0257 6.14584 27.9853 6.22897 27.9282 6.30023C27.8712 6.37149 27.7989 6.42907 27.7167 6.46875C27.6345 6.50844 27.5444 6.52922 27.4531 6.52958Z" fill="#FEC272"/>
<path d="M27.7473 8.64716C28.1383 8.64716 28.4553 8.3302 28.4553 7.93921C28.4553 7.54822 28.1383 7.23126 27.7473 7.23126C27.3563 7.23126 27.0394 7.54822 27.0394 7.93921C27.0394 8.3302 27.3563 8.64716 27.7473 8.64716Z" fill="#FEC272"/>
</svg>
