<svg width="25" height="27" viewBox="0 0 25 27" fill="none" xmlns="http://www.w3.org/2000/svg">
<path d="M22.794 25.5865H1.486C1.2187 25.5865 1 25.3678 1 25.1005V13.6634C1 13.3961 1.2187 13.1774 1.486 13.1774H22.794C23.0613 13.1774 23.28 13.3961 23.28 13.6634V25.1005C23.28 25.3678 23.0613 25.5865 22.794 25.5865Z" fill="#A57939"/>
<path d="M22.794 25.5865H1.486C1.2187 25.5865 1 25.3678 1 25.1005V13.6634C1 13.3961 1.2187 13.1774 1.486 13.1774H22.794C23.0613 13.1774 23.28 13.3961 23.28 13.6634V25.1005C23.28 25.3678 23.0613 25.5865 22.794 25.5865Z" stroke="black" stroke-width="1.55558" stroke-miterlimit="10" stroke-linecap="round" stroke-linejoin="round"/>
<path d="M22.6951 25.726H1.6246C1.3173 25.726 1.06818 25.4769 1.06818 25.1696V13.6251C1.06818 13.3178 1.3173 13.0687 1.6246 13.0687H22.6951C23.0024 13.0687 23.2516 13.3178 23.2516 13.6251V25.1696C23.2516 25.4769 23.0024 25.726 22.6951 25.726V25.726Z" stroke="black" stroke-width="1.55558" stroke-miterlimit="10" stroke-linecap="round" stroke-linejoin="round"/>
<path d="M1.17706 19.4125H23.2253" stroke="black" stroke-width="1.55558" stroke-miterlimit="10" stroke-linecap="round" stroke-linejoin="round"/>
<path d="M14.0974 15.5043H10.1964" stroke="black" stroke-width="1.55558" stroke-miterlimit="10" stroke-linecap="round" stroke-linejoin="round"/>
<path d="M14.0974 21.824H10.1964" stroke="black" stroke-width="1.55558" stroke-miterlimit="10" stroke-linecap="round" stroke-linejoin="round"/>
<path d="M12.1628 1V10.1707" stroke="black" stroke-width="1.55558" stroke-miterlimit="10" stroke-linecap="round" stroke-linejoin="round"/>
<path d="M15.1541 7.19577L12.17 10.1798" stroke="black" stroke-width="1.55558" stroke-miterlimit="10" stroke-linecap="round" stroke-linejoin="round"/>
<path d="M9.16174 7.19577L12.1458 10.1798" stroke="black" stroke-width="1.55558" stroke-miterlimit="10" stroke-linecap="round" stroke-linejoin="round"/>
</svg>
