<svg width="23" height="15" viewBox="0 0 23 15" fill="none" xmlns="http://www.w3.org/2000/svg">
<path d="M18.8197 14.911C20.7308 14.911 22.28 13.3617 22.28 11.4506C22.28 9.53954 20.7308 7.99033 18.8197 7.99033C16.9085 7.99033 15.3593 9.53954 15.3593 11.4506C15.3593 13.3617 16.9085 14.911 18.8197 14.911Z" fill="url(#paint0_linear_7_441)"/>
<path d="M18.8197 14.911C20.7308 14.911 22.28 13.3617 22.28 11.4506C22.28 9.53954 20.7308 7.99033 18.8197 7.99033C16.9085 7.99033 15.3593 9.53954 15.3593 11.4506C15.3593 13.3617 16.9085 14.911 18.8197 14.911Z" fill="url(#paint1_radial_7_441)"/>
<path d="M18.8197 14.911C20.7308 14.911 22.28 13.3617 22.28 11.4506C22.28 9.53954 20.7308 7.99033 18.8197 7.99033C16.9085 7.99033 15.3593 9.53954 15.3593 11.4506C15.3593 13.3617 16.9085 14.911 18.8197 14.911Z" fill="url(#paint2_radial_7_441)"/>
<path d="M3.46035 14.911C5.37145 14.911 6.92069 13.3617 6.92069 11.4506C6.92069 9.53954 5.37145 7.99033 3.46035 7.99033C1.54925 7.99033 0 9.53954 0 11.4506C0 13.3617 1.54925 14.911 3.46035 14.911Z" fill="url(#paint3_linear_7_441)"/>
<path d="M3.46035 14.911C5.37145 14.911 6.92069 13.3617 6.92069 11.4506C6.92069 9.53954 5.37145 7.99033 3.46035 7.99033C1.54925 7.99033 0 9.53954 0 11.4506C0 13.3617 1.54925 14.911 3.46035 14.911Z" fill="url(#paint4_radial_7_441)"/>
<path d="M3.46035 14.911C5.37145 14.911 6.92069 13.3617 6.92069 11.4506C6.92069 9.53954 5.37145 7.99033 3.46035 7.99033C1.54925 7.99033 0 9.53954 0 11.4506C0 13.3617 1.54925 14.911 3.46035 14.911Z" fill="url(#paint5_radial_7_441)"/>
<path d="M19.0097 13.5882C20.2955 13.5882 21.3378 12.5459 21.3378 11.2602C21.3378 9.97441 20.2955 8.9321 19.0097 8.9321C17.724 8.9321 16.6816 9.97441 16.6816 11.2602C16.6816 12.5459 17.724 13.5882 19.0097 13.5882Z" stroke="url(#paint6_linear_7_441)" stroke-width="0.962677"/>
<path d="M3.54645 13.5882C4.8322 13.5882 5.87451 12.5459 5.87451 11.2602C5.87451 9.97441 4.8322 8.9321 3.54645 8.9321C2.26069 8.9321 1.21838 9.97441 1.21838 11.2602C1.21838 12.5459 2.26069 13.5882 3.54645 13.5882Z" stroke="url(#paint7_linear_7_441)" stroke-width="0.962677"/>
<path d="M9.87668 6.19826L4.26578 11.8125L3.46036 10.2068L8.67362 4.99521L9.87668 6.19826Z" fill="url(#paint8_radial_7_441)"/>
<path d="M9.87668 6.19826L4.26578 11.8125L3.46036 10.2068L8.67362 4.99521L9.87668 6.19826Z" fill="url(#paint9_linear_7_441)"/>
<path d="M9.87668 6.19826L4.26578 11.8125L3.46036 10.2068L8.67362 4.99521L9.87668 6.19826Z" fill="url(#paint10_radial_7_441)"/>
<path d="M18.8369 11.0105H11.8818V12.6145H18.8369V11.0105Z" fill="url(#paint11_linear_7_441)"/>
<path d="M18.8369 11.0105H11.8818V12.6145H18.8369V11.0105Z" fill="url(#paint12_linear_7_441)"/>
<path d="M12.387 6.01229L18.1376 11.7629L19.2685 10.6321L13.5179 4.8815L12.387 6.01229Z" fill="url(#paint13_linear_7_441)"/>
<path d="M12.387 6.01229L18.1376 11.7629L19.2685 10.6321L13.5179 4.8815L12.387 6.01229Z" fill="url(#paint14_radial_7_441)"/>
<path d="M3.46034 12.6898C4.1663 12.6898 4.73859 12.1174 4.73859 11.4115C4.73859 10.7055 4.1663 10.1332 3.46034 10.1332C2.75439 10.1332 2.1821 10.7055 2.1821 11.4115C2.1821 12.1174 2.75439 12.6898 3.46034 12.6898Z" fill="url(#paint15_linear_7_441)"/>
<path d="M3.05933 4.59418L4.26238 2.99011H9.47565C10.3578 2.99011 11.0797 3.71194 11.0797 4.59418H16.694V3.76809C16.694 3.34301 17.0388 2.99011 17.4719 2.99011H20.7202C21.1533 2.99011 21.5062 3.34301 21.5142 3.76809V3.85631C21.5142 4.32951 21.3297 4.77865 20.9928 5.11551C19.9903 6.11805 18.7472 6.8078 17.4238 7.30507C16.3731 7.69806 15.4989 8.45198 14.9455 9.4064H14.9269C14.5009 10.1122 14.2879 10.9383 14.2879 11.8125V11.9007C14.2879 12.7349 13.5526 13.4166 12.6838 13.4166H9.47565C8.60672 13.4166 7.87157 12.6466 7.87157 11.8125C7.87157 10.9222 7.62719 10.1458 7.25433 9.4064H7.24591C6.73268 8.44396 5.93865 7.6339 4.92808 7.12862L4.49495 6.91207C3.61273 6.47897 3.05933 5.58069 3.05933 4.59418Z" fill="url(#paint16_linear_7_441)"/>
<path d="M7.25433 9.4064C7.6272 10.1458 7.87158 10.9223 7.87158 11.8125C7.87158 12.6466 8.60673 13.4166 9.47565 13.4166H12.6838C13.5526 13.4166 14.2879 12.7349 14.2879 11.9007V11.8125C14.2879 10.9383 14.5009 10.1122 14.9269 9.4064H7.25433Z" fill="url(#paint17_linear_7_441)"/>
<path d="M7.25433 9.4064C7.6272 10.1458 7.87158 10.9223 7.87158 11.8125C7.87158 12.6466 8.60673 13.4166 9.47565 13.4166H12.6838C13.5526 13.4166 14.2879 12.7349 14.2879 11.9007V11.8125C14.2879 10.9383 14.5009 10.1122 14.9269 9.4064H7.25433Z" fill="url(#paint18_linear_7_441)"/>
<path d="M7.02325 6.3351H6.24832C5.82215 6.3351 5.47345 5.9761 5.47345 5.53739C5.47345 5.0986 5.82215 4.73969 6.24832 4.73969H7.02325V6.3351Z" fill="#B31E61"/>
<path d="M7.07755 6.19825H6.27551C5.83437 6.19825 5.47345 5.83733 5.47345 5.39621C5.47345 4.95509 5.83437 4.59418 6.27551 4.59418H7.07755V6.19825Z" fill="url(#paint19_radial_7_441)"/>
<path d="M19.9021 4.6022C19.461 4.6022 19.1001 4.96311 19.1001 5.40423C19.1001 5.77317 19.3487 6.0619 19.6856 6.15815C20.1508 5.85337 20.5919 5.51652 20.9849 5.1155C21.1373 4.96311 21.2495 4.78667 21.3377 4.59418H19.9021V4.6022Z" fill="url(#paint20_linear_7_441)"/>
<path d="M15.916 6.19825H11.8577C11.4326 6.19825 11.0797 5.85337 11.0797 5.42027V4.59418H16.694V5.42027C16.694 5.85337 16.3411 6.19825 15.916 6.19825Z" fill="url(#paint21_linear_7_441)"/>
<path d="M4.48695 6.91206C4.59121 6.69551 4.6634 6.4549 4.6634 6.19825C4.6634 5.31601 3.94157 4.59418 3.05933 4.59418C3.05933 5.58068 3.61272 6.47896 4.48695 6.91206Z" fill="#EDB42B"/>
<path d="M3.05814 4.59419C3.56342 4.59419 4.04464 4.36962 4.37347 3.97662L6.94 0.904827C7.29289 0.479748 6.86782 -0.145839 6.34649 0.0306085C4.42963 0.672237 3.05814 2.47682 3.05814 4.59419Z" fill="url(#paint22_radial_7_441)"/>
<path d="M3.05814 4.59419C3.56342 4.59419 4.04464 4.36962 4.37347 3.97662L6.94 0.904827C7.29289 0.479748 6.86782 -0.145839 6.34649 0.0306085C4.42963 0.672237 3.05814 2.47682 3.05814 4.59419Z" fill="url(#paint23_radial_7_441)"/>
<path d="M6.67653 2.99012H5.07244C4.84787 2.99012 4.67142 2.81367 4.67142 2.5891C4.67142 2.36453 4.84787 2.18808 5.07244 2.18808H6.67653C6.9011 2.18808 7.07755 2.36453 7.07755 2.5891C7.07755 2.81367 6.89308 2.99012 6.67653 2.99012Z" fill="url(#paint24_radial_7_441)"/>
<path d="M18.8197 12.6898C19.5256 12.6898 20.0979 12.1174 20.0979 11.4115C20.0979 10.7055 19.5256 10.1332 18.8197 10.1332C18.1137 10.1332 17.5414 10.7055 17.5414 11.4115C17.5414 12.1174 18.1137 12.6898 18.8197 12.6898Z" fill="url(#paint25_linear_7_441)"/>
<path d="M10.8073 4.57657V5.66164C10.8073 6.10461 11.1664 6.46368 11.6094 6.46368H15.8691" stroke="url(#paint26_linear_7_441)" stroke-width="0.320892" stroke-linecap="round"/>
<defs>
<linearGradient id="paint0_linear_7_441" x1="17.224" y1="10.5806" x2="22.4216" y2="10.5806" gradientUnits="userSpaceOnUse">
<stop offset="0.239044" stop-color="#34214F"/>
<stop offset="1" stop-color="#241337"/>
</linearGradient>
<radialGradient id="paint1_radial_7_441" cx="0" cy="0" r="1" gradientUnits="userSpaceOnUse" gradientTransform="translate(18.8197 11.141) rotate(-65.5366) scale(1.88807 1.97201)">
<stop offset="0.523134" stop-color="#2D114D"/>
<stop offset="1" stop-color="#2B1249" stop-opacity="0"/>
</radialGradient>
<radialGradient id="paint2_radial_7_441" cx="0" cy="0" r="1" gradientUnits="userSpaceOnUse" gradientTransform="translate(19.7634 11.69) rotate(33.4862) scale(0.766152 0.860906)">
<stop stop-color="#392A49"/>
<stop offset="1" stop-color="#392A49" stop-opacity="0"/>
</radialGradient>
<linearGradient id="paint3_linear_7_441" x1="1.86473" y1="10.5806" x2="7.06225" y2="10.5806" gradientUnits="userSpaceOnUse">
<stop offset="0.239044" stop-color="#34214F"/>
<stop offset="1" stop-color="#241337"/>
</linearGradient>
<radialGradient id="paint4_radial_7_441" cx="0" cy="0" r="1" gradientUnits="userSpaceOnUse" gradientTransform="translate(3.46035 11.141) rotate(-65.5366) scale(1.88807 1.97201)">
<stop offset="0.523134" stop-color="#2D114D"/>
<stop offset="1" stop-color="#2B1249" stop-opacity="0"/>
</radialGradient>
<radialGradient id="paint5_radial_7_441" cx="0" cy="0" r="1" gradientUnits="userSpaceOnUse" gradientTransform="translate(4.40408 11.69) rotate(33.4862) scale(0.766152 0.860905)">
<stop stop-color="#392A49"/>
<stop offset="1" stop-color="#392A49" stop-opacity="0"/>
</radialGradient>
<linearGradient id="paint6_linear_7_441" x1="20.7479" y1="8.93209" x2="17.2366" y2="13.0769" gradientUnits="userSpaceOnUse">
<stop offset="0.0830122" stop-color="#615B6B"/>
<stop offset="0.390771" stop-color="#615B6B" stop-opacity="0"/>
<stop offset="0.692394" stop-color="#615B6B" stop-opacity="0"/>
<stop offset="0.934982" stop-color="#615B6B"/>
</linearGradient>
<linearGradient id="paint7_linear_7_441" x1="5.28468" y1="8.93209" x2="1.77343" y2="13.0769" gradientUnits="userSpaceOnUse">
<stop offset="0.0830122" stop-color="#615B6B"/>
<stop offset="0.390771" stop-color="#615B6B" stop-opacity="0"/>
<stop offset="0.692394" stop-color="#615B6B" stop-opacity="0"/>
<stop offset="0.934982" stop-color="#615B6B"/>
</linearGradient>
<radialGradient id="paint8_radial_7_441" cx="0" cy="0" r="1" gradientUnits="userSpaceOnUse" gradientTransform="translate(4.70521 9.1338) rotate(42.4362) scale(1.45957 4.15314)">
<stop stop-color="#7E7782"/>
<stop offset="1" stop-color="#4D3859"/>
</radialGradient>
<linearGradient id="paint9_linear_7_441" x1="6.48054" y1="9.90768" x2="5.96672" y2="9.40641" gradientUnits="userSpaceOnUse">
<stop stop-color="#350B32"/>
<stop offset="1" stop-color="#350B32" stop-opacity="0"/>
</linearGradient>
<radialGradient id="paint10_radial_7_441" cx="0" cy="0" r="1" gradientUnits="userSpaceOnUse" gradientTransform="translate(3.71099 10.1082) rotate(-31.8836) scale(3.74867 3.57775)">
<stop offset="0.767888" stop-color="#350B32" stop-opacity="0"/>
<stop offset="1" stop-color="#350B32"/>
</radialGradient>
<linearGradient id="paint11_linear_7_441" x1="15.6879" y1="12.6145" x2="15.6879" y2="11.4115" gradientUnits="userSpaceOnUse">
<stop stop-color="#594561"/>
<stop offset="1" stop-color="#9D909F"/>
</linearGradient>
<linearGradient id="paint12_linear_7_441" x1="15.7666" y1="12.6897" x2="15.7666" y2="12.038" gradientUnits="userSpaceOnUse">
<stop stop-color="#3A1950"/>
<stop offset="1" stop-color="#3A1950" stop-opacity="0"/>
</linearGradient>
<linearGradient id="paint13_linear_7_441" x1="16.9588" y1="8.75044" x2="16.0634" y2="9.64094" gradientUnits="userSpaceOnUse">
<stop stop-color="#868089"/>
<stop offset="1" stop-color="#362040"/>
</linearGradient>
<radialGradient id="paint14_radial_7_441" cx="0" cy="0" r="1" gradientUnits="userSpaceOnUse" gradientTransform="translate(17.2336 10.4508) rotate(-123.97) scale(2.92 3.477)">
<stop offset="0.767888" stop-color="#350B32" stop-opacity="0"/>
<stop offset="0.978525" stop-color="#350B32"/>
</radialGradient>
<linearGradient id="paint15_linear_7_441" x1="3.95894" y1="10.2825" x2="2.91858" y2="12.313" gradientUnits="userSpaceOnUse">
<stop stop-color="#DFCAF6"/>
<stop offset="1" stop-color="#DDC5F6"/>
</linearGradient>
<linearGradient id="paint16_linear_7_441" x1="2.50793" y1="6.20187" x2="21.8571" y2="6.20187" gradientUnits="userSpaceOnUse">
<stop stop-color="#DE367F"/>
<stop offset="0.689119" stop-color="#F63551"/>
<stop offset="1" stop-color="#FD4C61"/>
</linearGradient>
<linearGradient id="paint17_linear_7_441" x1="7.25433" y1="11.4151" x2="14.4605" y2="11.4151" gradientUnits="userSpaceOnUse">
<stop stop-color="#FC444F"/>
<stop offset="1" stop-color="#FF714D"/>
</linearGradient>
<linearGradient id="paint18_linear_7_441" x1="14.7327" y1="10.9551" x2="12.3991" y2="10.9551" gradientUnits="userSpaceOnUse">
<stop stop-color="#FF7A4A"/>
<stop offset="1" stop-color="#FF7A4A" stop-opacity="0"/>
</linearGradient>
<radialGradient id="paint19_radial_7_441" cx="0" cy="0" r="1" gradientUnits="userSpaceOnUse" gradientTransform="translate(5.99806 4.74151) scale(0.994477 1.39963)">
<stop stop-color="#FFDE49"/>
<stop offset="1" stop-color="#FF8947"/>
</radialGradient>
<linearGradient id="paint20_linear_7_441" x1="19.494" y1="5.10227" x2="20.3596" y2="5.87391" gradientUnits="userSpaceOnUse">
<stop stop-color="#B6015E"/>
<stop offset="1" stop-color="#D40B4F"/>
</linearGradient>
<linearGradient id="paint21_linear_7_441" x1="11.0765" y1="5.39982" x2="16.6908" y2="5.39982" gradientUnits="userSpaceOnUse">
<stop stop-color="#513469"/>
<stop offset="1" stop-color="#1C1C1C"/>
</linearGradient>
<radialGradient id="paint22_radial_7_441" cx="0" cy="0" r="1" gradientUnits="userSpaceOnUse" gradientTransform="translate(6.66314 0.399625) rotate(133.531) scale(4.13256 2.33854)">
<stop stop-color="#79F9FF"/>
<stop offset="1" stop-color="#309CE5"/>
</radialGradient>
<radialGradient id="paint23_radial_7_441" cx="0" cy="0" r="1" gradientUnits="userSpaceOnUse" gradientTransform="translate(6.468 1.92494) rotate(-140.332) scale(0.667488 1.90715)">
<stop stop-color="#5488BB"/>
<stop offset="1" stop-color="#5488BB" stop-opacity="0"/>
</radialGradient>
<radialGradient id="paint24_radial_7_441" cx="0" cy="0" r="1" gradientUnits="userSpaceOnUse" gradientTransform="translate(6.4907 2.39484) rotate(90) scale(0.360445 1.57194)">
<stop stop-color="#423B6B"/>
<stop offset="1" stop-color="#41175C"/>
</radialGradient>
<linearGradient id="paint25_linear_7_441" x1="19.3182" y1="10.2825" x2="18.2779" y2="12.313" gradientUnits="userSpaceOnUse">
<stop stop-color="#DFCAF6"/>
<stop offset="1" stop-color="#DDC5F6"/>
</linearGradient>
<linearGradient id="paint26_linear_7_441" x1="11.5305" y1="6.34025" x2="12.3585" y2="5.23295" gradientUnits="userSpaceOnUse">
<stop stop-color="#FF4D61"/>
<stop offset="1" stop-color="#FF4D61" stop-opacity="0"/>
</linearGradient>
</defs>
</svg>
