<svg width="25" height="25" viewBox="0 0 25 25" fill="none" xmlns="http://www.w3.org/2000/svg">
<path d="M17.7672 0H6.95237C5.67777 0 4.63492 1.04286 4.63492 2.31746V22.4021C4.63492 23.6767 5.67777 24.7195 6.95237 24.7195H17.7672C19.0418 24.7195 20.0846 23.6767 20.0846 22.4021V2.31746C20.0846 1.04286 19.0418 0 17.7672 0ZM12.3598 23.1746C11.5054 23.1746 10.8148 22.484 10.8148 21.6296C10.8148 20.7752 11.5054 20.0846 12.3598 20.0846C13.2141 20.0846 13.9047 20.7752 13.9047 21.6296C13.9047 22.484 13.2141 23.1746 12.3598 23.1746ZM18.5397 18.5396H6.17989V3.08994H18.5397V18.5396Z" fill="black"/>
</svg>
