<svg width="30" height="30" viewBox="0 0 30 30" fill="none" xmlns="http://www.w3.org/2000/svg">
<path d="M19.6887 21.8394C17.237 23.7439 14.1517 24.6424 11.0608 24.3519C7.96997 24.0614 5.10605 22.6037 3.0522 20.2758C0.998347 17.9478 -0.0910031 14.9246 0.00595906 11.8216C0.102921 8.71863 1.3789 5.76929 3.5741 3.5741C5.76929 1.3789 8.71863 0.102921 11.8216 0.00595906C14.9246 -0.091003 17.9478 0.998347 20.2758 3.0522C22.6037 5.10605 24.0614 7.96997 24.3519 11.0608C24.6424 14.1517 23.7439 17.237 21.8394 19.6887L30 27.8188L27.834 29.9847L19.704 21.8394H19.6887ZM12.2145 21.3513C13.4164 21.3513 14.6065 21.1146 15.7169 20.6547C16.8273 20.1947 17.8362 19.5206 18.686 18.6708C19.5359 17.8209 20.21 16.812 20.6699 15.7016C21.1299 14.5912 21.3666 13.4012 21.3666 12.1993C21.3666 10.9974 21.1299 9.80733 20.6699 8.69696C20.21 7.58658 19.5359 6.57767 18.686 5.72782C17.8362 4.87798 16.8273 4.20384 15.7169 3.74391C14.6065 3.28398 13.4164 3.04725 12.2145 3.04725C9.78727 3.04725 7.45942 4.01148 5.74308 5.72782C4.02674 7.44416 3.06251 9.77202 3.06251 12.1993C3.06251 14.6266 4.02674 16.9544 5.74308 18.6708C7.45942 20.3871 9.78727 21.3513 12.2145 21.3513Z" fill="#242424"/>
</svg>
