<svg width="30" height="32" viewBox="0 0 30 32" fill="none" xmlns="http://www.w3.org/2000/svg">
<path d="M15.0058 11.5245C13.9473 11.5245 12.9561 11.9351 12.2056 12.6856C11.4587 13.4361 11.0445 14.4273 11.0445 15.4857C11.0445 16.5442 11.4587 17.5354 12.2056 18.2859C12.9561 19.0328 13.9473 19.447 15.0058 19.447C16.0642 19.447 17.0554 19.0328 17.8059 18.2859C18.5528 17.5354 18.967 16.5442 18.967 15.4857C18.967 14.4273 18.5528 13.4361 17.8059 12.6856C17.4393 12.3162 17.003 12.0234 16.5224 11.824C16.0417 11.6247 15.5261 11.5229 15.0058 11.5245ZM29.6012 19.8612L27.286 17.8823C27.3958 17.2097 27.4524 16.523 27.4524 15.8397C27.4524 15.1565 27.3958 14.4662 27.286 13.7972L29.6012 11.8183C29.7761 11.6686 29.9013 11.4692 29.9601 11.2466C30.0189 11.024 30.0085 10.7888 29.9304 10.5722L29.8986 10.4802C29.2614 8.69846 28.3067 7.04693 27.0807 5.60559L27.017 5.53125C26.8681 5.35621 26.6697 5.23038 26.4479 5.17034C26.2261 5.11031 25.9913 5.11889 25.7744 5.19495L22.9 6.21801C21.838 5.34717 20.6556 4.66041 19.3741 4.18251L18.8183 1.17705C18.7764 0.95064 18.6666 0.742347 18.5034 0.579845C18.3403 0.417342 18.1316 0.308323 17.905 0.26727L17.8094 0.24957C15.9686 -0.0831901 14.0287 -0.0831901 12.1879 0.24957L12.0923 0.26727C11.8658 0.308323 11.657 0.417342 11.4939 0.579845C11.3308 0.742347 11.2209 0.95064 11.179 1.17705L10.6197 4.19667C9.35035 4.67838 8.16787 5.36348 7.11863 6.22509L4.22291 5.19495C4.00614 5.11829 3.77117 5.1094 3.54923 5.16947C3.32729 5.22954 3.12888 5.35572 2.98037 5.53125L2.91665 5.60559C1.69284 7.04846 0.738382 8.69958 0.0988054 10.4802L0.0669453 10.5722C-0.0923548 11.0147 0.0386254 11.5103 0.396166 11.8183L2.73965 13.8184C2.62991 14.4839 2.57681 15.1636 2.57681 15.8362C2.57681 16.5159 2.62991 17.1956 2.73965 17.854L0.403246 19.8541C0.228354 20.0038 0.103182 20.2032 0.0443741 20.4258C-0.0144341 20.6484 -0.0040921 20.8836 0.0740252 21.1002L0.105885 21.1922C0.746626 22.9728 1.69181 24.619 2.92373 26.0668L2.98745 26.1412C3.13632 26.3162 3.33474 26.442 3.55655 26.5021C3.77836 26.5621 4.01315 26.5535 4.22999 26.4775L7.12571 25.4473C8.18063 26.3146 9.35591 27.0014 10.6268 27.4757L11.1861 30.4954C11.228 30.7218 11.3379 30.9301 11.501 31.0926C11.6641 31.2551 11.8728 31.3641 12.0994 31.4051L12.195 31.4228C14.0539 31.7574 15.9576 31.7574 17.8165 31.4228L17.9121 31.4051C18.1387 31.3641 18.3474 31.2551 18.5105 31.0926C18.6737 30.9301 18.7835 30.7218 18.8254 30.4954L19.3812 27.4899C20.6627 27.0085 21.845 26.3252 22.907 25.4544L25.7815 26.4775C25.9983 26.5541 26.2333 26.563 26.4552 26.5029C26.6771 26.4429 26.8756 26.3167 27.0241 26.1412L27.0878 26.0668C28.3197 24.6119 29.2649 22.9728 29.9056 21.1922L29.9375 21.1002C30.0897 20.6612 29.9587 20.1692 29.6012 19.8612ZM15.0058 21.7091C11.5684 21.7091 8.78243 18.9231 8.78243 15.4857C8.78243 12.0484 11.5684 9.26242 15.0058 9.26242C18.4431 9.26242 21.2291 12.0484 21.2291 15.4857C21.2291 18.9231 18.4431 21.7091 15.0058 21.7091Z" fill="#A9A8A9"/>
</svg>
