<svg width="23" height="20" viewBox="0 0 23 20" fill="none" xmlns="http://www.w3.org/2000/svg">
<path d="M2.07174 1.18025C2.07174 1.18025 2.70325 0.363008 5.48931 1.62602C7.68102 2.62901 1.62597 5.48937 1.03161 4.30065C0.660135 3.59484 2.07174 1.18025 2.07174 1.18025Z" fill="#A8D600"/>
<path d="M18.5652 10.43C15.1477 8.05257 11.5815 0.994537 11.1357 0.994537C9.87273 0.994537 9.05548 1.47746 9.05548 1.47746L17.1908 13.2904C17.1908 13.3275 19.011 10.7272 18.5652 10.43Z" fill="#5B636B"/>
<path d="M20.2369 11.5444C19.7168 11.0987 18.2309 10.8015 17.8223 10.3929C16.2621 8.68407 12.9931 5.67512 10.207 0.585904C9.20405 -1.30862 4.56061 1.99751 4.56061 1.99751L12.6588 14.8877C12.7331 14.8877 22.1685 13.1418 20.2369 11.5444Z" fill="#333333"/>
<path d="M12.956 14.0705C13.4389 13.6618 13.4017 11.433 12.9931 10.8758C10.4671 7.23532 6.30655 1.73749 4.67206 1.73749C2.96327 1.73749 2.66609 4.04063 1.70026 4.04063C0.883011 4.04063 2.03458 1.14313 2.03458 1.14313C0.474388 2.88906 0.214355 8.46119 0.214355 8.46119C0.214355 8.46119 6.82662 19.3454 12.956 14.0705Z" fill="#5B636B"/>
<path d="M0.251513 7.97826C0.251513 7.97826 0.102923 6.52951 0.734431 4.59784C0.771579 6.78954 2.14604 7.30961 1.77456 10.2071L0.251513 7.97826ZM7.49528 14.702C9.20407 10.7272 16.5593 14.7391 20.2369 11.5444C20.8312 11.6187 22.02 13.6618 22.02 13.6618C22.02 13.6618 20.6827 19.0111 7.49528 14.702Z" fill="#69727A"/>
<path d="M0.251515 7.79251C-0.11996 7.79251 -0.0456652 10.3557 0.251515 10.7643C2.22033 13.2161 4.26345 13.8476 6.97522 17.1165C10.2442 21.017 22.28 19.1597 22.28 15.8164C22.28 13.0675 21.9457 13.3275 21.9457 13.3275C21.0913 15.5563 13.476 16.0393 10.69 15.4449C4.56063 14.1819 0.660138 7.79251 0.251515 7.79251Z" fill="#D0D0D0"/>
<path d="M4.74638 3.66914C5.03361 3.66914 5.26645 3.38641 5.26645 3.03764C5.26645 2.68886 5.03361 2.40613 4.74638 2.40613C4.45916 2.40613 4.22632 2.68886 4.22632 3.03764C4.22632 3.38641 4.45916 3.66914 4.74638 3.66914Z" fill="#333333"/>
<path d="M6.23228 5.37795C6.51951 5.37795 6.75235 5.09521 6.75235 4.74644C6.75235 4.39766 6.51951 4.11493 6.23228 4.11493C5.94506 4.11493 5.71222 4.39766 5.71222 4.74644C5.71222 5.09521 5.94506 5.37795 6.23228 5.37795Z" fill="#333333"/>
<path d="M7.5696 7.01244C7.85682 7.01244 8.08966 6.7297 8.08966 6.38093C8.08966 6.03216 7.85682 5.74942 7.5696 5.74942C7.28237 5.74942 7.04953 6.03216 7.04953 6.38093C7.04953 6.7297 7.28237 7.01244 7.5696 7.01244Z" fill="#333333"/>
<path d="M8.94405 9.05553C9.23127 9.05553 9.46411 8.77279 9.46411 8.42402C9.46411 8.07525 9.23127 7.79251 8.94405 7.79251C8.65682 7.79251 8.42398 8.07525 8.42398 8.42402C8.42398 8.77279 8.65682 9.05553 8.94405 9.05553Z" fill="#333333"/>
<path d="M10.2442 10.6157C10.5314 10.6157 10.7643 10.333 10.7643 9.98423C10.7643 9.63546 10.5314 9.35272 10.2442 9.35272C9.95699 9.35272 9.72415 9.63546 9.72415 9.98423C9.72415 10.333 9.95699 10.6157 10.2442 10.6157Z" fill="#333333"/>
<path d="M11.6187 12.436C11.9059 12.436 12.1387 12.1532 12.1387 11.8045C12.1387 11.4557 11.9059 11.1729 11.6187 11.1729C11.3314 11.1729 11.0986 11.4557 11.0986 11.8045C11.0986 12.1532 11.3314 12.436 11.6187 12.436Z" fill="#333333"/>
<path d="M11.6187 12.2502C11.5444 12.2502 11.4329 12.2131 11.3586 12.1388C11.21 11.953 11.21 11.693 11.3586 11.5073C11.4329 11.3958 13.4389 9.05554 17.2279 9.05554C17.4137 9.05554 17.5994 9.24127 17.5994 9.50131C17.5994 9.72419 17.4508 9.94708 17.2279 9.94708C13.7361 9.94708 11.8787 12.1388 11.8415 12.1388C11.8044 12.2131 11.7301 12.2502 11.6187 12.2502ZM10.2813 10.43C10.2071 10.43 10.1328 10.3928 10.0585 10.3186C9.90987 10.17 9.87272 9.90993 9.98417 9.72419C10.0585 9.61275 11.6187 7.27245 16.0021 7.27245C16.1878 7.27245 16.3735 7.45819 16.3735 7.71822C16.3735 7.94111 16.225 8.16399 16.0021 8.16399C12.0273 8.16399 10.5785 10.2814 10.5414 10.2814C10.5042 10.3557 10.3928 10.43 10.2813 10.43ZM8.98118 8.8698C8.90689 8.8698 8.79545 8.83265 8.72115 8.75835C8.57256 8.60976 8.57256 8.31258 8.684 8.12685C10.4671 5.74941 14.6648 5.71226 14.8505 5.71226C15.0362 5.71226 15.222 5.898 15.222 6.15803C15.222 6.38091 15.0734 6.6038 14.8505 6.6038C14.8133 6.6038 10.8014 6.64095 9.20407 8.72121C9.16692 8.83265 9.05548 8.8698 8.98118 8.8698ZM7.60673 6.78954C7.49528 6.78954 7.38384 6.71524 7.30955 6.6038C7.1981 6.41806 7.23525 6.12088 7.38384 6.00944C7.45814 5.93514 9.61269 4.04062 13.6246 4.04062C13.8104 4.04062 13.9961 4.22636 13.9961 4.48639C13.9961 4.74642 13.8475 4.93216 13.6246 4.93216C9.87273 4.93216 7.82961 6.71524 7.82961 6.75239C7.75532 6.78954 7.68102 6.78954 7.60673 6.78954ZM6.26941 5.19219C6.15797 5.19219 6.04653 5.1179 5.97223 5.0436C5.86079 4.85786 5.86079 4.59783 6.04653 4.41209C6.12082 4.3378 8.16394 2.40613 12.5473 2.40613C12.7331 2.40613 12.9188 2.59187 12.9188 2.8519C12.9188 3.07478 12.7702 3.29767 12.5473 3.29767C8.42397 3.29767 6.52945 5.1179 6.4923 5.1179C6.418 5.15504 6.34371 5.19219 6.26941 5.19219Z" fill="#A8D600"/>
</svg>
