<svg width="30" height="30" viewBox="0 0 30 30" fill="none" xmlns="http://www.w3.org/2000/svg">
<path d="M26.25 7.00651H2.8125V6.06901L23.4375 4.41901V6.06901H26.25V3.25651C26.25 1.19401 24.5794 -0.253495 22.5394 0.0371301L3.7125 2.72588C1.67063 3.01838 0 4.94401 0 7.00651V25.7565C0 26.7511 0.395088 27.7049 1.09835 28.4082C1.80161 29.1114 2.75544 29.5065 3.75 29.5065H26.25C27.2446 29.5065 28.1984 29.1114 28.9016 28.4082C29.6049 27.7049 30 26.7511 30 25.7565V10.7565C30 9.76194 29.6049 8.80812 28.9016 8.10485C28.1984 7.40159 27.2446 7.00651 26.25 7.00651ZM23.4375 20.1428C23.068 20.1426 22.7022 20.0697 22.3609 19.9282C22.0196 19.7867 21.7095 19.5794 21.4484 19.3181C21.1872 19.0567 20.9801 18.7465 20.8388 18.4051C20.6975 18.0637 20.6249 17.6978 20.625 17.3284C20.6251 16.9589 20.698 16.5931 20.8395 16.2518C20.981 15.9105 21.1884 15.6004 21.4497 15.3393C21.711 15.0781 22.0213 14.871 22.3626 14.7297C22.704 14.5884 23.0699 14.5158 23.4394 14.5159C24.1855 14.5161 24.9011 14.8128 25.4285 15.3406C25.9559 15.8684 26.2521 16.5841 26.2519 17.3303C26.2516 18.0764 25.955 18.7919 25.4272 19.3194C24.8994 19.8468 24.1837 20.143 23.4375 20.1428Z" fill="#A9A8A9"/>
</svg>
