<svg width="30" height="32" viewBox="0 0 30 32" fill="none" xmlns="http://www.w3.org/2000/svg">
<path d="M24.5568 16.3951C24.5568 17.111 23.9125 17.7554 23.1965 17.7554H6.87305C6.15711 17.7554 5.51276 17.111 5.51276 16.3951V15.0348C5.51276 14.3189 6.15711 13.6745 6.87305 13.6745H23.2681C23.9841 13.6745 24.6284 14.3189 24.6284 15.0348V16.3951H24.5568ZM21.8363 24.5568C21.8363 25.2728 21.1919 25.9171 20.476 25.9171H6.87305C6.15711 25.9171 5.51276 25.2728 5.51276 24.5568V23.1965C5.51276 22.4806 6.15711 21.8363 6.87305 21.8363H20.5476C21.2635 21.8363 21.9078 22.4806 21.9078 23.1965V24.5568H21.8363ZM5.51276 6.80146C5.51276 6.08551 6.15711 5.44117 6.87305 5.44117H20.5476C21.2635 5.44117 21.9078 6.08551 21.9078 6.80146V8.16175C21.9078 8.87769 21.2635 9.52204 20.5476 9.52204H6.87305C6.15711 9.52204 5.51276 8.87769 5.51276 8.16175V6.80146ZM25.9171 0H4.15247C1.86145 0 0 1.86145 0 4.08087V27.2774C0 29.4968 1.86145 31.3583 4.08087 31.3583H25.9171C28.1366 31.3583 29.998 29.4968 29.998 27.2774V4.08087C30.0696 1.86145 28.2081 0 25.9171 0Z" fill="#A9A8A9"/>
</svg>
